#N canvas 1 54 1351 713 10;
#X obj 35 291 tgl 30 0 empty empty empty 17 7 0 10 -13381 -1 -1 0 1
;
#X msg 55 37 disconnect;
#X obj 35 263 netsend;
#X msg 36 13 connect localhost 2000;
#X obj 116 67 r D-0;
#X msg 116 91 send D-0 \$1;
#X msg 282 91 send D-0 \$1;
#X msg 365 91 send D-0 \$1;
#X msg 451 90 send D-0 \$1;
#X msg 534 90 send D-0 \$1;
#X msg 617 90 send D-0 \$1;
#X msg 700 90 send D-0 \$1;
#X msg 784 88 send D-0 \$1;
#X msg 867 88 send D-0 \$1;
#X msg 950 88 send D-0 \$1;
#X msg 1033 88 send D-0 \$1;
#X msg 1117 87 send D-0 \$1;
#X obj 116 137 r D-0;
#X msg 116 161 send D-0 \$1;
#X obj 199 137 r D-0;
#X msg 199 161 send D-0 \$1;
#X obj 282 137 r D-0;
#X msg 282 161 send D-0 \$1;
#X obj 365 137 r D-0;
#X msg 365 161 send D-0 \$1;
#X obj 451 136 r D-0;
#X msg 451 160 send D-0 \$1;
#X obj 534 136 r D-0;
#X msg 534 160 send D-0 \$1;
#X obj 617 136 r D-0;
#X msg 617 160 send D-0 \$1;
#X obj 700 136 r D-0;
#X msg 700 160 send D-0 \$1;
#X obj 784 134 r D-0;
#X msg 784 158 send D-0 \$1;
#X obj 867 134 r D-0;
#X msg 867 158 send D-0 \$1;
#X obj 950 134 r D-0;
#X msg 950 158 send D-0 \$1;
#X obj 1033 134 r D-0;
#X msg 1033 158 send D-0 \$1;
#X obj 1117 133 r D-0;
#X msg 1117 157 send D-0 \$1;
#X obj 112 207 r D-0;
#X msg 112 231 send D-0 \$1;
#X obj 195 207 r D-0;
#X msg 195 231 send D-0 \$1;
#X obj 278 207 r D-0;
#X msg 278 231 send D-0 \$1;
#X obj 361 207 r D-0;
#X msg 361 231 send D-0 \$1;
#X obj 447 206 r D-0;
#X msg 447 230 send D-0 \$1;
#X obj 530 206 r D-0;
#X msg 530 230 send D-0 \$1;
#X obj 613 206 r D-0;
#X msg 613 230 send D-0 \$1;
#X obj 696 206 r D-0;
#X msg 696 230 send D-0 \$1;
#X obj 780 204 r D-0;
#X msg 780 228 send D-0 \$1;
#X obj 863 204 r D-0;
#X msg 863 228 send D-0 \$1;
#X obj 946 204 r D-0;
#X msg 946 228 send D-0 \$1;
#X obj 1029 204 r D-0;
#X msg 1029 228 send D-0 \$1;
#X obj 1113 203 r D-0;
#X msg 1113 227 send D-0 \$1;
#X obj 112 277 r D-0;
#X msg 112 301 send D-0 \$1;
#X obj 195 277 r D-0;
#X msg 195 301 send D-0 \$1;
#X obj 278 277 r D-0;
#X msg 278 301 send D-0 \$1;
#X obj 361 277 r D-0;
#X msg 361 301 send D-0 \$1;
#X obj 447 276 r D-0;
#X msg 447 300 send D-0 \$1;
#X obj 530 276 r D-0;
#X msg 530 300 send D-0 \$1;
#X obj 613 276 r D-0;
#X msg 613 300 send D-0 \$1;
#X obj 696 276 r D-0;
#X msg 696 300 send D-0 \$1;
#X obj 780 274 r D-0;
#X msg 780 298 send D-0 \$1;
#X obj 863 274 r D-0;
#X msg 863 298 send D-0 \$1;
#X obj 946 274 r D-0;
#X msg 946 298 send D-0 \$1;
#X obj 1029 274 r D-0;
#X msg 1029 298 send D-0 \$1;
#X obj 1113 273 r D-0;
#X msg 1113 297 send D-0 \$1;
#X obj 111 348 r D-0;
#X msg 111 372 send D-0 \$1;
#X obj 194 348 r D-0;
#X msg 194 372 send D-0 \$1;
#X obj 277 348 r D-0;
#X msg 277 372 send D-0 \$1;
#X obj 360 348 r D-0;
#X msg 360 372 send D-0 \$1;
#X obj 446 347 r D-0;
#X msg 446 371 send D-0 \$1;
#X obj 529 347 r D-0;
#X msg 529 371 send D-0 \$1;
#X obj 612 347 r D-0;
#X msg 612 371 send D-0 \$1;
#X obj 695 347 r D-0;
#X msg 695 371 send D-0 \$1;
#X obj 779 345 r D-0;
#X msg 779 369 send D-0 \$1;
#X obj 862 345 r D-0;
#X msg 862 369 send D-0 \$1;
#X obj 945 345 r D-0;
#X msg 945 369 send D-0 \$1;
#X obj 1028 345 r D-0;
#X msg 1028 369 send D-0 \$1;
#X obj 1112 344 r D-0;
#X msg 1112 368 send D-0 \$1;
#X obj 111 418 r D-0;
#X msg 111 442 send D-0 \$1;
#X obj 194 418 r D-0;
#X msg 194 442 send D-0 \$1;
#X obj 277 418 r D-0;
#X msg 277 442 send D-0 \$1;
#X obj 360 418 r D-0;
#X msg 360 442 send D-0 \$1;
#X obj 446 417 r D-0;
#X msg 446 441 send D-0 \$1;
#X obj 529 417 r D-0;
#X msg 529 441 send D-0 \$1;
#X obj 612 417 r D-0;
#X msg 612 441 send D-0 \$1;
#X obj 695 417 r D-0;
#X msg 695 441 send D-0 \$1;
#X obj 779 415 r D-0;
#X msg 779 439 send D-0 \$1;
#X obj 862 415 r D-0;
#X msg 862 439 send D-0 \$1;
#X obj 945 415 r D-0;
#X msg 945 439 send D-0 \$1;
#X obj 1028 415 r D-0;
#X msg 1028 439 send D-0 \$1;
#X obj 1112 414 r D-0;
#X msg 1112 438 send D-0 \$1;
#X obj 111 488 r D-0;
#X msg 111 512 send D-0 \$1;
#X obj 194 488 r D-0;
#X msg 194 512 send D-0 \$1;
#X obj 277 488 r D-0;
#X msg 277 512 send D-0 \$1;
#X obj 360 488 r D-0;
#X msg 360 512 send D-0 \$1;
#X obj 446 487 r D-0;
#X msg 446 511 send D-0 \$1;
#X obj 529 487 r D-0;
#X msg 529 511 send D-0 \$1;
#X obj 612 487 r D-0;
#X msg 612 511 send D-0 \$1;
#X obj 695 487 r D-0;
#X msg 695 511 send D-0 \$1;
#X obj 779 485 r D-0;
#X msg 779 509 send D-0 \$1;
#X obj 862 485 r D-0;
#X msg 862 509 send D-0 \$1;
#X obj 945 485 r D-0;
#X msg 945 509 send D-0 \$1;
#X obj 1028 485 r D-0;
#X msg 1028 509 send D-0 \$1;
#X obj 1112 484 r D-0;
#X msg 1112 508 send D-0 \$1;
#X obj 199 67 r D-1;
#X msg 199 91 send D-1 \$1;
#X obj 282 67 r D-2;
#X obj 365 67 r D-2;
#X obj 451 66 r D-3;
#X obj 534 66 r D-4;
#X obj 617 66 r D-5;
#X obj 700 66 r D-6;
#X obj 784 64 r D-7;
#X obj 867 64 r D-8;
#X obj 950 64 r D-9;
#X obj 1033 64 r D-10;
#X obj 1117 63 r D-11;
#X msg 1207 88 send D-0 \$1;
#X obj 1207 134 r D-0;
#X msg 1207 158 send D-0 \$1;
#X obj 1203 204 r D-0;
#X msg 1203 228 send D-0 \$1;
#X obj 1203 274 r D-0;
#X msg 1203 298 send D-0 \$1;
#X obj 1202 345 r D-0;
#X msg 1202 369 send D-0 \$1;
#X obj 1202 415 r D-0;
#X msg 1202 439 send D-0 \$1;
#X obj 1202 485 r D-0;
#X msg 1202 509 send D-0 \$1;
#X obj 1207 64 r D-12;
#X connect 1 0 2 0;
#X connect 2 0 0 0;
#X connect 3 0 2 0;
#X connect 4 0 5 0;
#X connect 5 0 2 0;
#X connect 6 0 2 0;
#X connect 7 0 2 0;
#X connect 8 0 2 0;
#X connect 9 0 2 0;
#X connect 10 0 2 0;
#X connect 17 0 18 0;
#X connect 19 0 20 0;
#X connect 21 0 22 0;
#X connect 23 0 24 0;
#X connect 25 0 26 0;
#X connect 27 0 28 0;
#X connect 29 0 30 0;
#X connect 31 0 32 0;
#X connect 33 0 34 0;
#X connect 35 0 36 0;
#X connect 37 0 38 0;
#X connect 39 0 40 0;
#X connect 41 0 42 0;
#X connect 43 0 44 0;
#X connect 45 0 46 0;
#X connect 47 0 48 0;
#X connect 49 0 50 0;
#X connect 51 0 52 0;
#X connect 53 0 54 0;
#X connect 55 0 56 0;
#X connect 57 0 58 0;
#X connect 59 0 60 0;
#X connect 61 0 62 0;
#X connect 63 0 64 0;
#X connect 65 0 66 0;
#X connect 67 0 68 0;
#X connect 69 0 70 0;
#X connect 71 0 72 0;
#X connect 73 0 74 0;
#X connect 75 0 76 0;
#X connect 77 0 78 0;
#X connect 79 0 80 0;
#X connect 81 0 82 0;
#X connect 83 0 84 0;
#X connect 85 0 86 0;
#X connect 87 0 88 0;
#X connect 89 0 90 0;
#X connect 91 0 92 0;
#X connect 93 0 94 0;
#X connect 95 0 96 0;
#X connect 97 0 98 0;
#X connect 99 0 100 0;
#X connect 101 0 102 0;
#X connect 103 0 104 0;
#X connect 105 0 106 0;
#X connect 107 0 108 0;
#X connect 109 0 110 0;
#X connect 111 0 112 0;
#X connect 113 0 114 0;
#X connect 115 0 116 0;
#X connect 117 0 118 0;
#X connect 119 0 120 0;
#X connect 121 0 122 0;
#X connect 123 0 124 0;
#X connect 125 0 126 0;
#X connect 127 0 128 0;
#X connect 129 0 130 0;
#X connect 131 0 132 0;
#X connect 133 0 134 0;
#X connect 135 0 136 0;
#X connect 137 0 138 0;
#X connect 139 0 140 0;
#X connect 141 0 142 0;
#X connect 143 0 144 0;
#X connect 145 0 146 0;
#X connect 147 0 148 0;
#X connect 149 0 150 0;
#X connect 151 0 152 0;
#X connect 153 0 154 0;
#X connect 155 0 156 0;
#X connect 157 0 158 0;
#X connect 159 0 160 0;
#X connect 161 0 162 0;
#X connect 163 0 164 0;
#X connect 165 0 166 0;
#X connect 167 0 168 0;
#X connect 169 0 170 0;
#X connect 171 0 172 0;
#X connect 173 0 174 0;
#X connect 174 0 2 0;
#X connect 175 0 6 0;
#X connect 176 0 7 0;
#X connect 177 0 8 0;
#X connect 178 0 9 0;
#X connect 179 0 10 0;
#X connect 180 0 11 0;
#X connect 181 0 12 0;
#X connect 182 0 13 0;
#X connect 183 0 14 0;
#X connect 184 0 15 0;
#X connect 185 0 16 0;
#X connect 187 0 188 0;
#X connect 189 0 190 0;
#X connect 191 0 192 0;
#X connect 193 0 194 0;
#X connect 195 0 196 0;
#X connect 197 0 198 0;
#X connect 199 0 186 0;
