#N canvas 58 71 590 529 10;
#X obj 304 93 gemhead;
#N canvas 110 218 844 360 properties 0;
#X obj 13 46 cnv 15 140 220 empty empty empty 20 12 0 14 -204800 -66577
0;
#X msg 18 230 led \$1;
#X obj 18 111 vradio 15 1 0 6 empty empty empty 0 -8 0 10 -262144 -1
-1 3;
#X floatatom 18 207 5 0 0 0 - - -, f 5;
#X msg 95 230 angle \$1;
#X obj 95 75 vsl 15 128 -30 30 0 0 empty empty empty 0 -9 0 10 -262144
-1 -1 0 1;
#X floatatom 95 211 5 0 0 0 - - -, f 5;
#X msg 95 50 0;
#X text 34 125 GREEN;
#X text 35 109 OFF;
#X text 34 141 RED;
#X text 34 156 YELLOW;
#X text 34 171 BLINK_GR;
#X text 34 185 BLINK_R_Y;
#X obj 168 48 cnv 15 320 120 empty empty empty 20 12 0 14 -4034 -66577
0;
#X obj 179 85 vradio 15 1 0 2 empty empty empty 0 -8 0 10 -262144 -1
-1 0;
#X floatatom 179 120 5 0 0 0 - - -, f 5;
#X obj 244 86 vradio 15 1 0 2 empty empty empty 0 -8 0 10 -262144 -1
-1 1;
#X floatatom 244 121 5 0 0 0 - - -, f 5;
#X msg 179 141 rgb \$1;
#X msg 244 142 depth \$1;
#X text 171 48 activate/deactivate streams;
#X text 173 62 save cpu power by just activating necessary streams!
;
#X obj 496 49 cnv 15 315 120 empty empty empty 20 12 0 14 -232576 -66577
0;
#X obj 499 88 vradio 15 1 0 2 empty empty empty 0 -8 0 10 -262144 -1
-1 0;
#X floatatom 499 123 5 0 0 0 - - -, f 5;
#X msg 499 143 depth_output \$1;
#X text 646 111 b = 0 \, a = 0;
#X text 21 4 properties for pix_freenect;
#X text 517 26 DEPTH OUTPUT;
#X text 190 27 STREAMS;
#X text 36 27 LED \, ANGLE;
#X text 645 98 r->3 msbits \, g ->8 lsbits;
#X text 518 101 Raw YUV (2 bytes) |;
#X text 518 86 Raw RGBA -> 11 bit output in r&g channel;
#X obj 168 192 cnv 15 520 120 empty empty empty 20 12 0 14 -261682
-66577 0;
#X obj 180 215 vradio 15 1 0 3 empty empty empty 0 -8 0 10 -262144
-1 -1 1;
#X floatatom 180 264 5 0 0 0 - - -, f 5;
#X obj 368 226 vradio 15 1 0 2 empty empty empty 0 -8 0 10 -262144
-1 -1 0;
#X floatatom 368 261 5 0 0 0 - - -, f 5;
#X msg 180 285 depth_mode \$1;
#X text 201 243 11bit raw;
#X text 503 52 set depth output colorspace;
#X text 171 195 set output formats;
#X text 201 227 mm aligned to rgb (16 bit);
#X text 201 213 mm unaligned (16 bit);
#X msg 368 282 video_mode \$1;
#X text 388 224 RGB;
#X text 387 240 IR;
#X obj 18 256 s \$0-prop;
#X obj 179 166 s \$0-prop;
#X obj 499 169 s \$0-prop;
#X obj 180 314 s \$0-prop;
#X obj 484 220 vradio 15 1 0 3 empty empty empty 0 -8 0 10 -262144
-1 -1 1;
#X floatatom 484 268 5 0 0 0 - - -, f 5;
#X msg 484 287 resolution \$1;
#X text 504 234 MEDIUM (default);
#X text 481 197 RGB RESOLUTION;
#X text 504 249 HIGH (restart rgb stream!);
#X text 504 219 LOW (not displaying correctly);
#X msg 106 314 1;
#X text 444 313 HIGH Resolution IR works just if depth stream is shut
down!!;
#X obj 107 288 r B;
#X connect 1 0 49 0;
#X connect 2 0 3 0;
#X connect 3 0 1 0;
#X connect 4 0 49 0;
#X connect 5 0 6 0;
#X connect 6 0 4 0;
#X connect 7 0 5 0;
#X connect 15 0 16 0;
#X connect 16 0 19 0;
#X connect 17 0 18 0;
#X connect 18 0 20 0;
#X connect 19 0 50 0;
#X connect 20 0 50 0;
#X connect 24 0 25 0;
#X connect 25 0 26 0;
#X connect 26 0 51 0;
#X connect 36 0 37 0;
#X connect 37 0 40 0;
#X connect 38 0 39 0;
#X connect 39 0 46 0;
#X connect 40 0 52 0;
#X connect 46 0 52 0;
#X connect 53 0 54 0;
#X connect 54 0 55 0;
#X connect 55 0 52 0;
#X connect 60 0 36 0;
#X connect 62 0 60 0;
#X restore 304 24 pd properties;
#X obj 425 93 gemhead;
#X text 312 74 gemhead for rgb;
#X text 432 73 and for depth;
#X text 319 155 rgb;
#X msg 242 125 info;
#X obj 240 35 r \$0-prop;
#X obj 116 388 pix_texture;
#X obj 304 133 pix_freenect A00367816982042A 1 1;
#X obj 505 383 tgl 15 0 empty modeKin mode 17 7 0 10 -262144 -1 -1
1 1;
#X obj 445 381 tgl 15 0 empty OnOffKin on/off 17 7 0 10 -262144 -1
-1 0 1;
#X obj 422 275 nbx 5 14 -1e+37 1e+37 0 0 empty empty hi_thresh 0 -8
0 10 -262144 -1 -1 0 256;
#X obj 425 329 nbx 5 14 -1e+37 1e+37 0 0 empty empty lo_thresh 0 -8
0 10 -262144 -1 -1 0 256;
#X obj 304 54 tgl 15 0 empty empty empty 17 7 0 10 -262144 -1 -1 0
1;
#X obj 425 55 tgl 15 0 empty empty empty 17 7 0 10 -262144 -1 -1 0
1;
#X text 496 153 Depth;
#X obj 116 457 rectangle 5.33 4;
#X obj 401 437 s Dimg;
#X obj 304 176 s RGBimg;
#X obj 26 224 r Dimg;
#X obj 98 338 pix_resize 13 7;
#X msg 31 386 quality \$1;
#X obj 33 362 tgl 15 0 empty qual empty 17 7 0 10 -262144 -1 -1 0 1
;
#X obj 108 259 hradio 15 1 0 4 empty empty empty 0 -8 0 10 -262144
-1 -1 1;
#X obj 26 280 demux . . . .;
#X obj 212 341 pix_duotone;
#X floatatom 227 276 5 0 0 0 - - -, f 5;
#X msg 297 298 1 1 1;
#X msg 297 320 0 0 0;
#X msg 228 301 \$1 \$1 \$1;
#X obj 165 302 pix_gray;
#X obj 115 485 s img;
#X text 226 106 get serial;
#X obj 15 20 cnv 15 180 180 empty empty empty 20 12 0 14 -233017 -66577
0;
#X obj 34 63 gemwin;
#X msg 34 31 dimen 640 480 \, create \, 1;
#X msg 86 63 0 \, destroy;
#N canvas 147 190 492 495 showDmouse 0;
#X obj 17 44 gemhead;
#X obj 21 325 translateXYZ 0 0 0.0001;
#X obj 268 273 pix_data;
#X floatatom 78 82 5 0 1 0 X - -, f 5;
#X floatatom 127 84 5 0 1 0 Y - -, f 5;
#X obj 78 106 t f f;
#X obj 128 107 t f f;
#X floatatom 349 333 5 0 0 0 - - -, f 5;
#X obj 239 336 unpack f f f;
#X floatatom 219 356 5 0 0 0 - - -, f 5;
#X floatatom 257 357 8 0 0 0 - - -, f 8;
#X floatatom 315 359 5 0 0 0 - - -, f 5;
#X obj 287 84 metro 200;
#X obj 288 64 tgl 15 0 empty empty empty 17 7 0 10 -262144 -1 -1 0
1;
#X obj 117 42 gemmouse;
#X obj 67 229 expr $f1*10.66/640 - 5.33;
#X obj 41 252 expr 4 - $f1*8/480;
#X obj 289 380 * 256;
#X obj 219 380 * 65536;
#X obj 219 410 +;
#X text 328 379 second and first 8 bits;
#X obj 222 435 / 1000;
#X msg 41 379 text \$1;
#X obj 208 73 sel 1;
#X obj 168 74 sel 1;
#X msg 207 103 0;
#X obj 78 412 r sz;
#X obj 20 410 text2d;
#X obj 312 189 expr $f1/640;
#X obj 319 217 expr 1 - $f1/480;
#X obj 302 136 r img;
#X text 246 407 depthmode 1;
#X obj 221 456 s Dmouse;
#X obj 43 356 r Dmouse;
#X msg 172 98 1;
#X obj 183 124 s showDmouse-r;
#X obj 211 7 r showDmouse-r;
#X connect 0 0 1 0;
#X connect 1 0 27 0;
#X connect 2 1 8 0;
#X connect 2 2 7 0;
#X connect 3 0 5 0;
#X connect 4 0 6 0;
#X connect 5 0 15 0;
#X connect 5 1 28 0;
#X connect 6 0 16 0;
#X connect 6 1 29 0;
#X connect 8 0 9 0;
#X connect 8 1 10 0;
#X connect 8 2 11 0;
#X connect 9 0 18 0;
#X connect 10 0 17 0;
#X connect 12 0 2 0;
#X connect 13 0 12 0;
#X connect 14 0 3 0;
#X connect 14 1 4 0;
#X connect 14 2 24 0;
#X connect 14 4 23 0;
#X connect 15 0 1 1;
#X connect 16 0 1 2;
#X connect 17 0 19 1;
#X connect 18 0 19 0;
#X connect 19 0 21 0;
#X connect 21 0 32 0;
#X connect 22 0 27 0;
#X connect 23 0 25 0;
#X connect 24 0 34 0;
#X connect 25 0 35 0;
#X connect 26 0 27 1;
#X connect 28 0 2 2;
#X connect 29 0 2 3;
#X connect 30 0 2 1;
#X connect 33 0 22 0;
#X connect 34 0 35 0;
#X connect 36 0 0 0;
#X connect 36 0 13 0;
#X restore 27 122 pd showDmouse;
#N canvas 1 347 1351 271 get7x13D 0;
#X obj 203 27 getD 2 2 0;
#X obj 403 27 getD 4 4 0;
#X obj 712 27 getD 7 7 0;
#X obj 609 27 getD 6 6 0;
#X obj 13 27 getD 0 0 0;
#X obj 109 27 getD 1 1 0;
#X obj 302 27 getD 3 3 0;
#X obj 817 27 getD 8 8 0;
#X obj 1025 27 getD 10 10 0;
#X obj 1252 27 getD 12 12 0;
#X obj 1252 54 getD 25 12 1;
#X obj 1138 54 getD 24 11 1;
#X obj 924 54 getD 22 9 1;
#X obj 13 54 getD 13 0 1;
#X obj 13 81 getD 26 0 2;
#X obj 13 108 getD 39 0 3;
#X obj 14 137 getD 52 0 4;
#X obj 14 164 getD 65 0 5;
#X obj 14 191 getD 78 0 6;
#X obj 109 81 getD 27 1 2;
#X obj 110 137 getD 53 1 4;
#X obj 110 191 getD 79 1 6;
#X obj 203 81 getD 28 2 2;
#X obj 204 137 getD 54 2 4;
#X obj 204 191 getD 80 2 6;
#X obj 303 81 getD 29 3 2;
#X obj 303 137 getD 55 3 4;
#X obj 303 191 getD 81 3 6;
#X obj 403 81 getD 30 4 2;
#X obj 404 137 getD 56 4 4;
#X obj 404 191 getD 82 4 6;
#X obj 505 27 getD 5 5 0;
#X obj 505 81 getD 31 5 2;
#X obj 506 137 getD 57 5 4;
#X obj 506 191 getD 83 5 6;
#X obj 609 81 getD 32 6 2;
#X obj 611 136 getD 58 6 4;
#X obj 610 191 getD 84 6 6;
#X obj 712 81 getD 33 7 2;
#X obj 713 137 getD 59 7 4;
#X obj 713 191 getD 85 7 6;
#X obj 817 81 getD 34 8 2;
#X obj 818 137 getD 60 8 4;
#X obj 818 191 getD 86 8 6;
#X obj 924 27 getD 9 9 0;
#X obj 924 81 getD 35 9 2;
#X obj 924 108 getD 48 9 3;
#X obj 925 137 getD 61 9 4;
#X obj 925 164 getD 74 9 5;
#X obj 925 191 getD 87 9 6;
#X obj 1025 54 getD 23 10 1;
#X obj 1025 81 getD 36 10 2;
#X obj 1025 108 getD 49 10 3;
#X obj 1026 137 getD 62 10 4;
#X obj 1026 164 getD 75 10 5;
#X obj 1026 191 getD 88 10 6;
#X obj 1138 27 getD 11 11 0;
#X obj 1138 80 getD 37 11 2;
#X obj 1138 108 getD 50 11 3;
#X obj 1139 137 getD 63 11 4;
#X obj 1139 164 getD 76 11 5;
#X obj 1139 191 getD 89 11 6;
#X obj 1252 81 getD 38 12 2;
#X obj 1252 108 getD 51 12 3;
#X obj 1253 137 getD 64 12 4;
#X obj 1253 164 getD 77 12 5;
#X obj 1253 191 getD 90 12 6;
#X obj 109 54 getD 14 1 1;
#X obj 109 108 getD 40 1 3;
#X obj 110 164 getD 66 1 5;
#X obj 203 54 getD 15 2 1;
#X obj 203 108 getD 41 2 3;
#X obj 204 164 getD 67 2 5;
#X obj 302 54 getD 16 3 1;
#X obj 302 108 getD 42 3 3;
#X obj 303 164 getD 68 3 5;
#X obj 403 54 getD 17 4 1;
#X obj 403 107 getD 43 4 3;
#X obj 404 164 getD 69 4 5;
#X obj 505 54 getD 18 5 1;
#X obj 505 108 getD 44 5 3;
#X obj 506 164 getD 70 5 5;
#X obj 609 54 getD 19 6 1;
#X obj 609 108 getD 45 6 3;
#X obj 610 164 getD 71 6 5;
#X obj 712 54 getD 20 7 1;
#X obj 712 108 getD 46 7 3;
#X obj 713 164 getD 72 7 5;
#X obj 817 54 getD 21 8 1;
#X obj 817 108 getD 47 8 3;
#X obj 818 164 getD 73 8 5;
#X restore 89 91 pd get7x13D;
#N canvas 636 267 639 228 init 1;
#X obj 101 15 table coorX;
#X obj 187 15 table coorY;
#X obj 274 16 table valD;
#X obj 35 11 loadbang;
#X obj 6 11 s B;
#X msg 12 44 \; OnOffKin 0 \; modeKin 1 \; qual 0 \; showDmouse-r 0
\; sz 15 \; coorX resize 13 \; coorX 0 0.038 0.115 0.192 0.269 0.346
0.423 0.5 0.577 0.654 0.731 0.807 0.884 0.961 \; coorX bounds 0 0 12
1 \; coorY resize 7 \; coorY 0 0.071 0.214 0.357 0.5 0.642 0.786 0.928
\; coorY bounds 0 0 6 1 \; valD resize 91 \;, f 86;
#X connect 3 0 4 0;
#X connect 3 0 5 0;
#X restore 33 91 pd init;
#N canvas 165 162 248 184 D2sound 0;
#X obj 29 115 tgl 15 0 empty empty empty 17 7 0 10 -262144 -1 -1 1
1;
#X msg 90 44 disconnect;
#X obj 27 80 netsend;
#X msg 24 23 connect localhost 2000;
#X msg 63 119 send /pixN_Dval \$1 \$2;
#X obj 104 91 r OutList;
#X connect 1 0 2 0;
#X connect 2 0 0 0;
#X connect 3 0 2 0;
#X connect 4 0 2 0;
#X connect 5 0 4 0;
#X restore 35 151 pd D2sound;
#X msg 424 348 lo_thresh \$1;
#X msg 417 294 hi_thresh \$1;
#X obj 403 413 pix_depth2rgba;
#X obj 116 425 alpha;
#X obj 84 225 r B;
#X msg 111 235 1;
#X connect 0 0 9 0;
#X connect 2 0 9 1;
#X connect 6 0 9 0;
#X connect 7 0 9 0;
#X connect 8 0 45 0;
#X connect 9 0 19 0;
#X connect 9 1 44 0;
#X connect 10 0 44 1;
#X connect 11 0 44 0;
#X connect 12 0 43 0;
#X connect 13 0 42 0;
#X connect 14 0 0 0;
#X connect 15 0 2 0;
#X connect 17 0 32 0;
#X connect 20 0 25 0;
#X connect 21 0 8 0;
#X connect 22 0 8 0;
#X connect 23 0 22 0;
#X connect 24 0 25 1;
#X connect 25 0 8 0;
#X connect 25 1 21 0;
#X connect 25 2 31 0;
#X connect 26 0 8 0;
#X connect 27 0 30 0;
#X connect 28 0 26 2;
#X connect 29 0 26 3;
#X connect 30 0 26 1;
#X connect 31 0 26 0;
#X connect 36 0 35 0;
#X connect 37 0 35 0;
#X connect 42 0 44 0;
#X connect 43 0 44 0;
#X connect 44 0 18 0;
#X connect 45 0 17 0;
#X connect 46 0 47 0;
#X connect 47 0 24 0;
