#N canvas 75 193 725 497 10;
#X obj 134 15 tgl 15 0 empty empty empty 17 7 0 10 -262144 -1 -1 0
1;
#X msg 134 35 \; pd dsp \$1;
#N canvas 803 110 318 272 rec7x13D 0;
#X obj 61 33 netreceive 2000;
#X obj 41 104 unpack f f;
#X obj 103 150 makefilename D%d;
#X obj 74 195 s;
#X obj 122 101 s go-r;
#X obj 62 62 route /pixN_Dval /go;
#X obj 39 173 print;
#X connect 0 0 5 0;
#X connect 1 0 2 0;
#X connect 1 1 3 0;
#X connect 2 0 3 1;
#X connect 5 0 1 0;
#X connect 5 1 4 0;
#X restore 20 14 pd rec7x13D;
#N canvas 286 329 818 261 play_samples 0;
#X obj 375 17 playD 6;
#X obj 719 105 playD 51;
#X obj 259 17 playD 4;
#X obj 142 17 playD 2;
#X obj 200 17 playD 3;
#X obj 26 17 playD 0;
#X obj 84 17 playD 1;
#X obj 317 17 playD 5;
#X obj 433 17 playD 7;
#X obj 489 17 playD 8;
#X obj 547 17 playD 9;
#X obj 605 17 playD 10;
#X obj 663 17 playD 11;
#X obj 719 17 playD 12;
#X obj 26 46 playD 13;
#X obj 84 46 playD 14;
#X obj 142 46 playD 15;
#X obj 200 46 playD 16;
#X obj 259 46 playD 17;
#X obj 317 46 playD 18;
#X obj 375 46 playD 19;
#X obj 433 46 playD 20;
#X obj 489 46 playD 21;
#X obj 547 46 playD 22;
#X obj 605 46 playD 23;
#X obj 663 46 playD 24;
#X obj 719 46 playD 25;
#X obj 26 75 playD 26;
#X obj 84 75 playD 27;
#X obj 142 75 playD 28;
#X obj 200 75 playD 29;
#X obj 259 75 playD 30;
#X obj 317 75 playD 31;
#X obj 375 75 playD 32;
#X obj 433 75 playD 33;
#X obj 489 75 playD 34;
#X obj 547 75 playD 35;
#X obj 605 75 playD 36;
#X obj 663 75 playD 37;
#X obj 719 75 playD 38;
#X obj 26 105 playD 39;
#X obj 84 105 playD 40;
#X obj 142 105 playD 41;
#X obj 200 105 playD 42;
#X obj 259 105 playD 43;
#X obj 317 105 playD 44;
#X obj 375 105 playD 45;
#X obj 433 105 playD 46;
#X obj 489 105 playD 47;
#X obj 547 105 playD 48;
#X obj 605 105 playD 49;
#X obj 663 105 playD 50;
#X obj 26 134 playD 52;
#X obj 84 134 playD 53;
#X obj 142 134 playD 54;
#X obj 200 134 playD 55;
#X obj 259 134 playD 56;
#X obj 317 134 playD 57;
#X obj 375 134 playD 58;
#X obj 433 134 playD 59;
#X obj 489 134 playD 60;
#X obj 547 134 playD 61;
#X obj 605 134 playD 62;
#X obj 663 134 playD 63;
#X obj 719 134 playD 64;
#X obj 26 163 playD 65;
#X obj 84 163 playD 66;
#X obj 142 163 playD 67;
#X obj 200 163 playD 68;
#X obj 259 163 playD 69;
#X obj 317 163 playD 70;
#X obj 375 163 playD 71;
#X obj 433 163 playD 72;
#X obj 489 163 playD 73;
#X obj 547 163 playD 74;
#X obj 605 163 playD 75;
#X obj 663 163 playD 76;
#X obj 719 163 playD 77;
#X obj 26 191 playD 78;
#X obj 84 191 playD 79;
#X obj 142 191 playD 80;
#X obj 200 191 playD 81;
#X obj 259 191 playD 82;
#X obj 317 191 playD 83;
#X obj 376 191 playD 84;
#X obj 434 191 playD 85;
#X obj 490 191 playD 86;
#X obj 548 191 playD 87;
#X obj 606 191 playD 88;
#X obj 664 191 playD 89;
#X obj 720 191 playD 90;
#X restore 20 45 pd play_samples;
#X obj 69 236 s Go;
#X obj 69 202 tgl 15 0 empty empty empty 17 7 0 10 -262144 -1 -1 0
1;
#X obj 307 365 dac~;
#X obj 195 178 *~ 0.1;
#X floatatom 269 111 5 0 0 0 - - -, f 5;
#X floatatom 81 309 5 0 0 0 - - -, f 5;
#X floatatom 79 385 5 0 0 0 - - -, f 5;
#X obj 81 410 s Tempomin;
#X obj 79 339 s TempoRange;
#X floatatom 407 173 0 0 120 0 - - -;
#X text 448 173 level \, dB;
#X floatatom 451 197 0 0 100 0 - - -;
#X text 492 197 liveness \, 0-100;
#X floatatom 495 223 0 0 120 0 - - -;
#X floatatom 539 247 0 0 120 0 - - -;
#X text 526 223 crossover frequency \, Hz.;
#X text 572 248 HF damping \, percent;
#X obj 364 278 rev2~ 100 90 3000 20;
#X obj 109 239 s GoOnce;
#X obj 105 204 bng 15 250 50 0 empty empty empty 17 7 0 10 -262144
-1 -1;
#X obj 114 170 metro 500;
#X obj 116 135 tgl 15 0 empty empty empty 17 7 0 10 -262144 -1 -1 0
1;
#X floatatom 155 138 5 0 0 0 - - -, f 5;
#X obj 196 150 catch~ som-l;
#X obj 283 148 catch~ som-r;
#X obj 288 177 *~ 0.1;
#X obj 455 77 s reset;
#X obj 451 51 bng 15 250 50 0 empty empty empty 17 7 0 10 -262144 -1
-1;
#X msg 156 275 3000;
#X msg 177 358 600;
#X connect 0 0 1 0;
#X connect 5 0 4 0;
#X connect 7 0 6 1;
#X connect 8 0 7 1;
#X connect 8 0 29 1;
#X connect 9 0 12 0;
#X connect 10 0 11 0;
#X connect 13 0 21 1;
#X connect 15 0 21 2;
#X connect 17 0 21 3;
#X connect 18 0 21 4;
#X connect 23 0 22 0;
#X connect 24 0 23 0;
#X connect 25 0 24 0;
#X connect 26 0 24 1;
#X connect 27 0 7 0;
#X connect 28 0 29 0;
#X connect 29 0 6 0;
#X connect 31 0 30 0;
#X connect 32 0 9 0;
#X connect 33 0 10 0;
