#N canvas 505 105 622 635 10;
#X obj 304 93 gemhead;
#N canvas 1 208 844 360 properties 0;
#X obj 13 46 cnv 15 140 220 empty empty empty 20 12 0 14 -204800 -66577
0;
#X msg 18 230 led \$1;
#X obj 18 111 vradio 15 1 0 6 empty empty empty 0 -8 0 10 -262144 -1
-1 3;
#X floatatom 18 207 5 0 0 0 - - -, f 5;
#X msg 95 230 angle \$1;
#X obj 95 75 vsl 15 128 -30 30 0 0 empty empty empty 0 -9 0 10 -262144
-1 -1 0 1;
#X floatatom 95 211 5 0 0 0 - - -, f 5;
#X msg 95 50 0;
#X text 34 125 GREEN;
#X text 35 109 OFF;
#X text 34 141 RED;
#X text 34 156 YELLOW;
#X text 34 171 BLINK_GR;
#X text 34 185 BLINK_R_Y;
#X obj 168 48 cnv 15 320 120 empty empty empty 20 12 0 14 -4034 -66577
0;
#X obj 179 85 vradio 15 1 0 2 empty empty empty 0 -8 0 10 -262144 -1
-1 0;
#X floatatom 179 120 5 0 0 0 - - -, f 5;
#X obj 244 86 vradio 15 1 0 2 empty empty empty 0 -8 0 10 -262144 -1
-1 1;
#X floatatom 244 121 5 0 0 0 - - -, f 5;
#X msg 179 141 rgb \$1;
#X msg 244 142 depth \$1;
#X text 171 48 activate/deactivate streams;
#X text 173 62 save cpu power by just activating necessary streams!
;
#X obj 496 49 cnv 15 315 120 empty empty empty 20 12 0 14 -232576 -66577
0;
#X obj 499 88 vradio 15 1 0 2 empty empty empty 0 -8 0 10 -262144 -1
-1 0;
#X floatatom 499 123 5 0 0 0 - - -, f 5;
#X msg 499 143 depth_output \$1;
#X text 646 111 b = 0 \, a = 0;
#X text 21 4 properties for pix_freenect;
#X text 517 26 DEPTH OUTPUT;
#X text 190 27 STREAMS;
#X text 36 27 LED \, ANGLE;
#X text 645 98 r->3 msbits \, g ->8 lsbits;
#X text 518 101 Raw YUV (2 bytes) |;
#X text 518 86 Raw RGBA -> 11 bit output in r&g channel;
#X obj 168 192 cnv 15 520 120 empty empty empty 20 12 0 14 -261682
-66577 0;
#X obj 180 215 vradio 15 1 0 3 empty empty empty 0 -8 0 10 -262144
-1 -1 1;
#X floatatom 180 264 5 0 0 0 - - -, f 5;
#X obj 368 226 vradio 15 1 0 2 empty empty empty 0 -8 0 10 -262144
-1 -1 0;
#X floatatom 368 261 5 0 0 0 - - -, f 5;
#X msg 180 285 depth_mode \$1;
#X text 201 243 11bit raw;
#X text 503 52 set depth output colorspace;
#X text 171 195 set output formats;
#X text 201 227 mm aligned to rgb (16 bit);
#X text 201 213 mm unaligned (16 bit);
#X msg 368 282 video_mode \$1;
#X text 388 224 RGB;
#X text 387 240 IR;
#X obj 18 256 s \$0-prop;
#X obj 179 166 s \$0-prop;
#X obj 499 169 s \$0-prop;
#X obj 180 314 s \$0-prop;
#X obj 484 220 vradio 15 1 0 3 empty empty empty 0 -8 0 10 -262144
-1 -1 1;
#X floatatom 484 268 5 0 0 0 - - -, f 5;
#X msg 484 287 resolution \$1;
#X text 504 234 MEDIUM (default);
#X text 481 197 RGB RESOLUTION;
#X text 504 249 HIGH (restart rgb stream!);
#X text 504 219 LOW (not displaying correctly);
#X msg 106 314 1;
#X text 444 313 HIGH Resolution IR works just if depth stream is shut
down!!;
#X obj 107 288 r B;
#X connect 1 0 49 0;
#X connect 2 0 3 0;
#X connect 3 0 1 0;
#X connect 4 0 49 0;
#X connect 5 0 6 0;
#X connect 6 0 4 0;
#X connect 7 0 5 0;
#X connect 15 0 16 0;
#X connect 16 0 19 0;
#X connect 17 0 18 0;
#X connect 18 0 20 0;
#X connect 19 0 50 0;
#X connect 20 0 50 0;
#X connect 24 0 25 0;
#X connect 25 0 26 0;
#X connect 26 0 51 0;
#X connect 36 0 37 0;
#X connect 37 0 40 0;
#X connect 38 0 39 0;
#X connect 39 0 46 0;
#X connect 40 0 52 0;
#X connect 46 0 52 0;
#X connect 53 0 54 0;
#X connect 54 0 55 0;
#X connect 55 0 52 0;
#X connect 60 0 36 0;
#X connect 62 0 60 0;
#X restore 304 24 pd properties;
#X obj 425 93 gemhead;
#X text 312 74 gemhead for rgb;
#X text 432 73 and for depth;
#X text 319 155 rgb;
#X msg 242 125 info;
#X obj 240 35 r \$0-prop;
#X obj 136 458 pix_texture;
#X obj 304 133 pix_freenect A00367816982042A 1 1;
#X obj 486 208 tgl 15 0 empty empty mode 17 7 0 10 -262144 -1 -1 0
1;
#X obj 422 211 tgl 15 0 empty empty on/off 17 7 0 10 -262144 -1 -1
0 1;
#X obj 491 249 nbx 5 14 -1e+37 1e+37 0 0 empty empty hi_thresh 0 -8
0 10 -262144 -1 -1 0 256;
#X obj 401 272 pix_depth2rgba 5000 100;
#X obj 555 247 nbx 5 14 -1e+37 1e+37 0 0 empty empty lo_thresh 0 -8
0 10 -262144 -1 -1 0 256;
#N canvas 128 461 569 230 thresholds 0;
#X obj 69 177 outlet;
#X msg 31 63 lo_thresh \$1;
#X msg 69 109 hi_thresh \$1;
#X floatatom 31 46 5 0 0 0 - - -, f 5;
#X floatatom 69 92 5 0 0 0 - - -, f 5;
#X text 72 17 low threshold default to 10.1;
#X text 109 89 same as third inlet \, set by arg \, default 8000;
#X text 162 186 pixel which are out of bounds are zeroes;
#X text 163 149 this normalizes the color gradient from lo_thresh to
hi_thresh;
#X text 89 33 same as fourth inlet \, set by second creation arg;
#X connect 1 0 0 0;
#X connect 2 0 0 0;
#X connect 3 0 1 0;
#X connect 4 0 2 0;
#X restore 299 238 pd thresholds;
#X obj 304 54 tgl 15 0 empty empty empty 17 7 0 10 -262144 -1 -1 0
1;
#X obj 425 55 tgl 15 0 empty empty empty 17 7 0 10 -262144 -1 -1 0
1;
#X text 409 154 Depth;
#X obj 136 495 translateXYZ 0 0 0;
#X obj 136 527 rectangle 5.33 4;
#X obj 399 296 s Dimg;
#X obj 304 176 s RGBimg;
#X obj 81 284 r Dimg;
#X obj 151 407 pix_resize 13 7;
#X msg 51 456 quality \$1;
#X obj 53 432 tgl 15 0 empty empty empty 17 7 0 10 -262144 -1 -1 0
1;
#X obj 150 280 hradio 15 1 0 4 empty empty empty 0 -8 0 10 -262144
-1 -1 0;
#X obj 278 410 pix_duotone;
#X floatatom 293 345 5 0 0 0 - - -, f 5;
#X msg 360 353 1 1 1;
#X msg 384 388 0 0 0;
#X msg 294 370 \$1 \$1 \$1;
#X obj 231 371 pix_gray;
#X obj 135 555 s img;
#X text 226 106 get serial;
#X obj 15 20 cnv 15 180 180 empty empty empty 20 12 0 14 -233017 -66577
0;
#X obj 34 63 gemwin;
#X msg 34 31 dimen 640 480 \, create \, 1;
#X msg 86 63 0 \, destroy;
#N canvas 147 190 492 495 showDmouse 0;
#X obj 17 44 gemhead;
#X obj 21 325 translateXYZ 0 0 0.0001;
#X obj 268 273 pix_data;
#X floatatom 78 82 5 0 1 0 X - -, f 5;
#X floatatom 127 84 5 0 1 0 Y - -, f 5;
#X obj 78 106 t f f;
#X obj 128 107 t f f;
#X floatatom 349 333 5 0 0 0 - - -, f 5;
#X obj 239 336 unpack f f f;
#X floatatom 219 356 5 0 0 0 - - -, f 5;
#X floatatom 257 357 8 0 0 0 - - -, f 8;
#X floatatom 315 359 5 0 0 0 - - -, f 5;
#X obj 287 84 metro 200;
#X obj 288 64 tgl 15 0 empty empty empty 17 7 0 10 -262144 -1 -1 1
1;
#X obj 117 42 gemmouse;
#X obj 67 229 expr $f1*10.66/640 - 5.33;
#X obj 41 252 expr 4 - $f1*8/480;
#X obj 289 380 * 256;
#X obj 219 380 * 65536;
#X obj 219 410 +;
#X text 328 379 second and first 8 bits;
#X obj 222 435 / 1000;
#X msg 41 379 text \$1;
#X obj 208 73 sel 1;
#X obj 168 74 sel 1;
#X msg 207 103 0;
#X obj 78 412 r sz;
#X obj 20 410 text2d;
#X obj 312 189 expr $f1/640;
#X obj 319 217 expr 1 - $f1/480;
#X obj 302 136 r img;
#X text 246 407 depthmode 1;
#X obj 221 456 s Dmouse;
#X obj 43 356 r Dmouse;
#X msg 172 98 1;
#X obj 183 124 s showDmouse-r;
#X obj 211 7 r showDmouse-r;
#X connect 0 0 1 0;
#X connect 1 0 27 0;
#X connect 2 1 8 0;
#X connect 2 2 7 0;
#X connect 3 0 5 0;
#X connect 4 0 6 0;
#X connect 5 0 15 0;
#X connect 5 1 28 0;
#X connect 6 0 16 0;
#X connect 6 1 29 0;
#X connect 8 0 9 0;
#X connect 8 1 10 0;
#X connect 8 2 11 0;
#X connect 9 0 18 0;
#X connect 10 0 17 0;
#X connect 12 0 2 0;
#X connect 13 0 12 0;
#X connect 14 0 3 0;
#X connect 14 1 4 0;
#X connect 14 2 24 0;
#X connect 14 4 23 0;
#X connect 15 0 1 1;
#X connect 16 0 1 2;
#X connect 17 0 19 1;
#X connect 18 0 19 0;
#X connect 19 0 21 0;
#X connect 21 0 32 0;
#X connect 22 0 27 0;
#X connect 23 0 25 0;
#X connect 24 0 34 0;
#X connect 25 0 35 0;
#X connect 26 0 27 1;
#X connect 28 0 2 2;
#X connect 29 0 2 3;
#X connect 30 0 2 1;
#X connect 33 0 22 0;
#X connect 34 0 35 0;
#X connect 36 0 0 0;
#X connect 36 0 13 0;
#X restore 27 122 pd showDmouse;
#N canvas 1 346 1351 271 get7x13D 0;
#X obj 712 27 playD 7 7 0;
#X obj 609 27 playD 6 6 0;
#X obj 13 27 playD 0 0 0;
#X obj 109 27 playD 1 1 0;
#X obj 203 27 playD 2 2 0;
#X obj 302 27 playD 3 3 0;
#X obj 403 27 playD 4 4 0;
#X obj 817 27 playD 8 8 0;
#X obj 1025 27 playD 10 10 0;
#X obj 1252 27 playD 12 12 0;
#X obj 1252 54 playD 25 12 1;
#X obj 1138 54 playD 24 11 1;
#X obj 924 54 playD 22 9 1;
#X obj 13 54 playD 13 0 1;
#X obj 13 81 playD 26 0 2;
#X obj 13 108 playD 39 0 3;
#X obj 14 137 playD 52 0 4;
#X obj 14 164 playD 65 0 5;
#X obj 14 191 playD 78 0 6;
#X obj 109 81 playD 27 1 2;
#X obj 110 137 playD 53 1 4;
#X obj 110 191 playD 79 1 6;
#X obj 203 81 playD 28 2 2;
#X obj 204 137 playD 54 2 4;
#X obj 204 191 playD 80 2 6;
#X obj 303 81 playD 29 3 2;
#X obj 303 137 playD 55 3 4;
#X obj 303 191 playD 81 3 6;
#X obj 403 81 playD 30 4 2;
#X obj 404 137 playD 56 4 4;
#X obj 404 191 playD 82 4 6;
#X obj 505 27 playD 5 5 0;
#X obj 505 81 playD 31 5 2;
#X obj 506 137 playD 57 5 4;
#X obj 506 191 playD 83 5 6;
#X obj 609 81 playD 32 6 2;
#X obj 611 136 playD 58 6 4;
#X obj 610 191 playD 84 6 6;
#X obj 712 81 playD 33 7 2;
#X obj 713 137 playD 59 7 4;
#X obj 713 191 playD 85 7 6;
#X obj 817 81 playD 34 8 2;
#X obj 818 137 playD 60 8 4;
#X obj 818 191 playD 86 8 6;
#X obj 924 27 playD 9 9 0;
#X obj 924 81 playD 35 9 2;
#X obj 924 108 playD 48 9 3;
#X obj 925 137 playD 61 9 4;
#X obj 925 164 playD 74 9 5;
#X obj 925 191 playD 87 9 6;
#X obj 1025 54 playD 23 10 1;
#X obj 1025 81 playD 36 10 2;
#X obj 1025 108 playD 49 10 3;
#X obj 1026 137 playD 62 10 4;
#X obj 1026 164 playD 75 10 5;
#X obj 1026 191 playD 88 10 6;
#X obj 1138 27 playD 11 11 0;
#X obj 1138 80 playD 37 11 2;
#X obj 1138 108 playD 50 11 3;
#X obj 1139 137 playD 63 11 4;
#X obj 1139 164 playD 76 11 5;
#X obj 1139 191 playD 89 11 6;
#X obj 1252 81 playD 38 12 2;
#X obj 1252 108 playD 51 12 3;
#X obj 1253 137 playD 64 12 4;
#X obj 1253 164 playD 77 12 5;
#X obj 1253 191 playD 90 12 6;
#X obj 109 54 playD 14 1 1;
#X obj 109 108 playD 40 1 3;
#X obj 110 164 playD 66 1 5;
#X obj 203 54 playD 15 2 1;
#X obj 203 108 playD 41 2 3;
#X obj 204 164 playD 67 2 5;
#X obj 302 54 playD 16 3 1;
#X obj 302 108 playD 42 3 3;
#X obj 303 164 playD 68 3 5;
#X obj 403 54 playD 17 4 1;
#X obj 403 107 playD 43 4 3;
#X obj 404 164 playD 69 4 5;
#X obj 505 54 playD 18 5 1;
#X obj 505 108 playD 44 5 3;
#X obj 506 164 playD 70 5 5;
#X obj 609 54 playD 19 6 1;
#X obj 609 108 playD 45 6 3;
#X obj 610 164 playD 71 6 5;
#X obj 712 54 playD 20 7 1;
#X obj 712 108 playD 46 7 3;
#X obj 713 164 playD 72 7 5;
#X obj 817 54 playD 21 8 1;
#X obj 817 108 playD 47 8 3;
#X obj 818 164 playD 73 8 5;
#X restore 89 91 pd get7x13D;
#X obj 121 120 bng 50 250 50 0 bdata bdata-r Bang_D 5 30 0 10 -204786
-1 -1;
#N canvas 548 131 660 276 init 0;
#X obj 101 15 table coorX;
#X obj 187 15 table coorY;
#X obj 274 16 table valD;
#X obj 35 11 loadbang;
#X obj 6 11 s B;
#X msg 12 44 \; showDmouse-r 0 \; sz 15 \; coorX resize 13 \; coorX
0 0.038 0.115 0.192 0.269 0.346 0.423 0.5 0.577 0.654 0.731 0.807 0.884
0.961 \; coorX bounds 0 0 12 1 \; coorY resize 7 \; coorY 0 0.071 0.214
0.357 0.5 0.642 0.786 0.928 \; coorY bounds 0 0 6 1 \; valD resize
91 \; valD bounds 0 5 91 0 \;, f 86;
#X connect 3 0 4 0;
#X connect 3 0 5 0;
#X restore 33 91 pd init;
#N canvas 739 312 501 369 D2sound 0;
#X obj 35 291 tgl 30 0 empty empty empty 17 7 0 10 -13381 -1 -1 0 1
;
#X msg 55 37 disconnect;
#X obj 35 263 netsend;
#X msg 36 13 connect localhost 2000;
#X obj 302 288 pack f f;
#X obj 239 260 tabread valD;
#X obj 236 101 until;
#X obj 253 143 f;
#X obj 286 143 + 1;
#X msg 236 76 90;
#X obj 252 169 t f f f;
#X msg 250 314 send /pixN_valD \$1 \$2;
#X msg 290 88 0;
#X obj 242 27 t b b;
#X obj 240 53 delay 10;
#X obj 200 171 sel 90;
#X obj 160 226 spigot;
#X obj 132 68 r go;
#X obj 131 95 sel 0 1;
#X obj 161 129 t b b;
#X msg 172 164 1;
#X msg 131 129 0;
#X obj 160 260 s bdata-r;
#X obj 242 4 r bdata-r;
#X obj 70 191 r go;
#X msg 70 214 send /go \$1;
#X connect 1 0 2 0;
#X connect 2 0 0 0;
#X connect 3 0 2 0;
#X connect 4 0 11 0;
#X connect 5 0 4 0;
#X connect 6 0 7 0;
#X connect 7 0 8 0;
#X connect 7 0 10 0;
#X connect 8 0 7 1;
#X connect 9 0 6 0;
#X connect 10 0 15 0;
#X connect 10 1 4 1;
#X connect 10 2 5 0;
#X connect 11 0 2 0;
#X connect 12 0 7 0;
#X connect 13 0 14 0;
#X connect 13 1 12 0;
#X connect 14 0 9 0;
#X connect 15 0 16 0;
#X connect 16 0 22 0;
#X connect 17 0 18 0;
#X connect 18 0 21 0;
#X connect 18 1 19 0;
#X connect 19 0 13 0;
#X connect 19 1 20 0;
#X connect 20 0 16 1;
#X connect 21 0 16 1;
#X connect 23 0 13 0;
#X connect 24 0 25 0;
#X connect 25 0 2 0;
#X restore 35 150 pd D2sound;
#X obj 18 221 tgl 50 0 go empty OnOff 1 -7 0 16 -257985 -1 -1 0 1;
#X obj 64 310 demux . . . . .;
#X connect 0 0 9 0;
#X connect 2 0 9 1;
#X connect 6 0 9 0;
#X connect 7 0 9 0;
#X connect 8 0 19 0;
#X connect 9 0 22 0;
#X connect 9 1 13 0;
#X connect 10 0 13 1;
#X connect 11 0 13 0;
#X connect 12 0 13 2;
#X connect 13 0 21 0;
#X connect 14 0 13 3;
#X connect 15 0 13 0;
#X connect 16 0 0 0;
#X connect 17 0 2 0;
#X connect 19 0 20 0;
#X connect 20 0 34 0;
#X connect 23 0 46 0;
#X connect 24 0 8 0;
#X connect 25 0 8 0;
#X connect 26 0 25 0;
#X connect 27 0 46 1;
#X connect 28 0 8 0;
#X connect 29 0 32 0;
#X connect 30 0 28 2;
#X connect 31 0 28 3;
#X connect 32 0 28 1;
#X connect 33 0 28 0;
#X connect 38 0 37 0;
#X connect 39 0 37 0;
#X connect 46 0 8 0;
#X connect 46 1 24 0;
#X connect 46 2 33 0;
