#N canvas 1 113 587 587 10;
#X obj 289 397 gemhead;
#N canvas 98 224 844 360 properties 0;
#X obj 13 46 cnv 15 140 220 empty empty empty 20 12 0 14 -204800 -66577
0;
#X msg 18 230 led \$1;
#X obj 18 111 vradio 15 1 0 6 empty empty empty 0 -8 0 10 -262144 -1
-1 1;
#X floatatom 18 207 5 0 0 0 - - -, f 5;
#X msg 95 230 angle \$1;
#X obj 95 75 vsl 15 128 -30 30 0 0 empty empty empty 0 -9 0 10 -262144
-1 -1 9250 1;
#X floatatom 95 211 5 0 0 0 - - -, f 5;
#X msg 95 50 0;
#X text 34 125 GREEN;
#X text 35 109 OFF;
#X text 34 141 RED;
#X text 34 156 YELLOW;
#X text 34 171 BLINK_GR;
#X text 34 185 BLINK_R_Y;
#X obj 168 48 cnv 15 320 120 empty empty empty 20 12 0 14 -4034 -66577
0;
#X obj 179 85 vradio 15 1 0 2 empty empty empty 0 -8 0 10 -262144 -1
-1 0;
#X floatatom 179 120 5 0 0 0 - - -, f 5;
#X obj 244 86 vradio 15 1 0 2 empty empty empty 0 -8 0 10 -262144 -1
-1 1;
#X floatatom 244 121 5 0 0 0 - - -, f 5;
#X msg 179 141 rgb \$1;
#X msg 244 142 depth \$1;
#X text 171 48 activate/deactivate streams;
#X text 173 62 save cpu power by just activating necessary streams!
;
#X obj 496 49 cnv 15 315 120 empty empty empty 20 12 0 14 -232576 -66577
0;
#X obj 499 88 vradio 15 1 0 2 empty empty empty 0 -8 0 10 -262144 -1
-1 0;
#X floatatom 499 123 5 0 0 0 - - -, f 5;
#X msg 499 143 depth_output \$1;
#X text 646 111 b = 0 \, a = 0;
#X text 21 4 properties for pix_freenect;
#X text 517 26 DEPTH OUTPUT;
#X text 190 27 STREAMS;
#X text 36 27 LED \, ANGLE;
#X text 645 98 r->3 msbits \, g ->8 lsbits;
#X text 518 101 Raw YUV (2 bytes) |;
#X text 518 86 Raw RGBA -> 11 bit output in r&g channel;
#X obj 168 192 cnv 15 520 120 empty empty empty 20 12 0 14 -261682
-66577 0;
#X obj 180 215 vradio 15 1 0 3 empty empty empty 0 -8 0 10 -262144
-1 -1 1;
#X floatatom 180 264 5 0 0 0 - - -, f 5;
#X obj 368 226 vradio 15 1 0 2 empty empty empty 0 -8 0 10 -262144
-1 -1 1;
#X floatatom 368 261 5 0 0 0 - - -, f 5;
#X msg 180 285 depth_mode \$1;
#X text 201 243 11bit raw;
#X text 503 52 set depth output colorspace;
#X text 171 195 set output formats;
#X text 201 227 mm aligned to rgb (16 bit);
#X text 201 213 mm unaligned (16 bit);
#X msg 368 282 video_mode \$1;
#X text 388 224 RGB;
#X text 387 240 IR;
#X obj 18 256 s \$0-prop;
#X obj 179 166 s \$0-prop;
#X obj 499 169 s \$0-prop;
#X obj 180 314 s \$0-prop;
#X obj 484 220 vradio 15 1 0 3 empty empty empty 0 -8 0 10 -262144
-1 -1 1;
#X floatatom 484 268 5 0 0 0 - - -, f 5;
#X msg 484 287 resolution \$1;
#X text 504 234 MEDIUM (default);
#X text 481 197 RGB RESOLUTION;
#X text 504 249 HIGH (restart rgb stream!);
#X text 504 219 LOW (not displaying correctly);
#X msg 106 314 1;
#X text 444 313 HIGH Resolution IR works just if depth stream is shut
down!!;
#X obj 107 288 r B;
#X connect 1 0 49 0;
#X connect 2 0 3 0;
#X connect 3 0 1 0;
#X connect 4 0 49 0;
#X connect 5 0 6 0;
#X connect 6 0 4 0;
#X connect 7 0 5 0;
#X connect 15 0 16 0;
#X connect 16 0 19 0;
#X connect 17 0 18 0;
#X connect 18 0 20 0;
#X connect 19 0 50 0;
#X connect 20 0 50 0;
#X connect 24 0 25 0;
#X connect 25 0 26 0;
#X connect 26 0 51 0;
#X connect 36 0 37 0;
#X connect 37 0 40 0;
#X connect 38 0 39 0;
#X connect 39 0 46 0;
#X connect 40 0 52 0;
#X connect 46 0 52 0;
#X connect 53 0 54 0;
#X connect 54 0 55 0;
#X connect 55 0 52 0;
#X connect 60 0 36 0;
#X connect 62 0 60 0;
#X restore 289 328 pd properties;
#X obj 410 397 gemhead;
#X text 297 378 gemhead for rgb;
#X text 417 377 and for depth;
#X text 304 459 rgb;
#X msg 227 429 info;
#X obj 225 339 r \$0-prop;
#X obj 289 437 pix_freenect A00367816982042A 1 1;
#X obj 289 358 tgl 15 0 empty empty empty 17 7 0 10 -262144 -1 -1 0
1;
#X obj 410 359 tgl 15 0 empty empty empty 17 7 0 10 -262144 -1 -1 0
1;
#X text 481 457 Depth;
#X obj 262 479 s RGBimg;
#X obj 28 271 r Dimg;
#X obj 73 409 pix_resize 13 7;
#X obj 103 306 hradio 15 1 0 4 empty empty empty 0 -8 0 10 -262144
-1 -1 1;
#X obj 28 345 demux . . . .;
#X text 196 403 get serial;
#X obj 15 20 cnv 15 180 180 empty empty empty 20 12 0 14 -233017 -66577
0;
#X obj 34 63 gemwin;
#X msg 34 31 dimen 640 480 \, create \, 1;
#X msg 86 63 0 \, destroy;
#N canvas 123 202 492 495 showDmouse 0;
#X obj 17 44 gemhead;
#X obj 21 325 translateXYZ 0 0 0.0001;
#X obj 268 273 pix_data;
#X floatatom 78 82 5 0 1 0 X - -, f 5;
#X floatatom 127 84 5 0 1 0 Y - -, f 5;
#X obj 78 106 t f f;
#X obj 128 107 t f f;
#X obj 239 336 unpack f f f;
#X floatatom 315 359 5 0 0 0 - - -, f 5;
#X obj 287 84 metro 200;
#X obj 288 64 tgl 15 0 empty empty empty 17 7 0 10 -262144 -1 -1 1
1;
#X obj 117 42 gemmouse;
#X obj 67 229 expr $f1*10.66/640 - 5.33;
#X obj 41 252 expr 4 - $f1*8/480;
#X obj 289 380 * 256;
#X obj 219 380 * 65536;
#X obj 219 410 +;
#X text 328 379 second and first 8 bits;
#X obj 222 435 / 1000;
#X msg 41 379 text \$1;
#X obj 208 73 sel 1;
#X obj 168 74 sel 1;
#X msg 207 103 0;
#X obj 78 412 r sz;
#X obj 20 410 text2d;
#X obj 312 189 expr $f1/640;
#X obj 319 217 expr 1 - $f1/480;
#X obj 302 136 r img;
#X text 246 407 depthmode 1;
#X obj 241 652 s Dmouse;
#X obj 43 356 r Dmouse;
#X msg 172 98 1;
#X obj 183 124 s showDmouse-r;
#X obj 211 7 r showDmouse-r;
#X obj 285 437 r maxThr;
#X obj 301 469 r minThr;
#X obj 232 465 min 10000;
#X obj 23 187 colour 0.1 0.9 0.2;
#X obj 232 487 max 0;
#X obj 259 547 r minThr;
#X obj 327 530 r maxThr;
#X obj 232 589 maxlib/scale 0 10 0 1 0;
#X obj 127 566 demux;
#X obj 158 542 tgl 15 0 empty empty empty 17 7 0 10 -262144 -1 -1 0
1;
#X obj 161 514 r mouse-mode;
#X connect 0 0 37 0;
#X connect 1 0 24 0;
#X connect 2 1 7 0;
#X connect 3 0 5 0;
#X connect 4 0 6 0;
#X connect 5 0 12 0;
#X connect 5 1 25 0;
#X connect 6 0 13 0;
#X connect 6 1 26 0;
#X connect 7 0 15 0;
#X connect 7 1 14 0;
#X connect 7 2 8 0;
#X connect 9 0 2 0;
#X connect 10 0 9 0;
#X connect 11 0 3 0;
#X connect 11 1 4 0;
#X connect 11 2 21 0;
#X connect 11 4 20 0;
#X connect 12 0 1 1;
#X connect 13 0 1 2;
#X connect 14 0 16 1;
#X connect 15 0 16 0;
#X connect 16 0 18 0;
#X connect 18 0 42 0;
#X connect 19 0 24 0;
#X connect 20 0 22 0;
#X connect 21 0 31 0;
#X connect 22 0 32 0;
#X connect 23 0 24 1;
#X connect 25 0 2 2;
#X connect 26 0 2 3;
#X connect 27 0 2 1;
#X connect 30 0 19 0;
#X connect 31 0 32 0;
#X connect 33 0 0 0;
#X connect 33 0 10 0;
#X connect 34 0 36 1;
#X connect 35 0 38 1;
#X connect 36 0 38 0;
#X connect 37 0 1 0;
#X connect 38 0 41 0;
#X connect 39 0 41 1;
#X connect 40 0 41 2;
#X connect 41 0 29 0;
#X connect 42 0 29 0;
#X connect 42 1 36 0;
#X connect 43 0 42 1;
#X connect 44 0 43 0;
#X restore 27 122 pd showDmouse;
#N canvas 12 413 1351 271 get7x13D 0;
#X obj 14 27 getD 0 0 0;
#X obj 505 81 getD 31 5 2;
#X obj 1138 27 getD 11 11 0;
#X obj 403 27 getD 4 4 0;
#X obj 203 27 getD 2 2 0;
#X obj 712 27 getD 7 7 0;
#X obj 609 27 getD 6 6 0;
#X obj 109 27 getD 1 1 0;
#X obj 302 27 getD 3 3 0;
#X obj 817 27 getD 8 8 0;
#X obj 1025 27 getD 10 10 0;
#X obj 1252 27 getD 12 12 0;
#X obj 1252 54 getD 25 12 1;
#X obj 1138 54 getD 24 11 1;
#X obj 924 54 getD 22 9 1;
#X obj 13 54 getD 13 0 1;
#X obj 13 81 getD 26 0 2;
#X obj 13 108 getD 39 0 3;
#X obj 14 137 getD 52 0 4;
#X obj 14 164 getD 65 0 5;
#X obj 14 191 getD 78 0 6;
#X obj 109 81 getD 27 1 2;
#X obj 110 137 getD 53 1 4;
#X obj 110 191 getD 79 1 6;
#X obj 203 81 getD 28 2 2;
#X obj 204 137 getD 54 2 4;
#X obj 204 191 getD 80 2 6;
#X obj 303 81 getD 29 3 2;
#X obj 303 137 getD 55 3 4;
#X obj 303 191 getD 81 3 6;
#X obj 403 81 getD 30 4 2;
#X obj 404 137 getD 56 4 4;
#X obj 404 191 getD 82 4 6;
#X obj 505 27 getD 5 5 0;
#X obj 506 137 getD 57 5 4;
#X obj 506 191 getD 83 5 6;
#X obj 609 81 getD 32 6 2;
#X obj 611 136 getD 58 6 4;
#X obj 610 191 getD 84 6 6;
#X obj 712 81 getD 33 7 2;
#X obj 713 137 getD 59 7 4;
#X obj 713 191 getD 85 7 6;
#X obj 817 81 getD 34 8 2;
#X obj 818 137 getD 60 8 4;
#X obj 818 191 getD 86 8 6;
#X obj 924 27 getD 9 9 0;
#X obj 924 81 getD 35 9 2;
#X obj 924 108 getD 48 9 3;
#X obj 925 137 getD 61 9 4;
#X obj 925 164 getD 74 9 5;
#X obj 925 191 getD 87 9 6;
#X obj 1025 54 getD 23 10 1;
#X obj 1025 81 getD 36 10 2;
#X obj 1025 108 getD 49 10 3;
#X obj 1026 137 getD 62 10 4;
#X obj 1026 164 getD 75 10 5;
#X obj 1026 191 getD 88 10 6;
#X obj 1138 80 getD 37 11 2;
#X obj 1138 108 getD 50 11 3;
#X obj 1139 137 getD 63 11 4;
#X obj 1139 164 getD 76 11 5;
#X obj 1139 191 getD 89 11 6;
#X obj 1252 81 getD 38 12 2;
#X obj 1252 108 getD 51 12 3;
#X obj 1253 137 getD 64 12 4;
#X obj 1253 164 getD 77 12 5;
#X obj 1253 191 getD 90 12 6;
#X obj 109 54 getD 14 1 1;
#X obj 109 108 getD 40 1 3;
#X obj 110 164 getD 66 1 5;
#X obj 203 54 getD 15 2 1;
#X obj 203 108 getD 41 2 3;
#X obj 204 164 getD 67 2 5;
#X obj 302 54 getD 16 3 1;
#X obj 302 108 getD 42 3 3;
#X obj 303 164 getD 68 3 5;
#X obj 403 54 getD 17 4 1;
#X obj 403 107 getD 43 4 3;
#X obj 404 164 getD 69 4 5;
#X obj 505 54 getD 18 5 1;
#X obj 505 108 getD 44 5 3;
#X obj 506 164 getD 70 5 5;
#X obj 609 54 getD 19 6 1;
#X obj 609 108 getD 45 6 3;
#X obj 610 164 getD 71 6 5;
#X obj 712 54 getD 20 7 1;
#X obj 712 108 getD 46 7 3;
#X obj 713 164 getD 72 7 5;
#X obj 817 54 getD 21 8 1;
#X obj 817 108 getD 47 8 3;
#X obj 818 164 getD 73 8 5;
#X restore 89 91 pd get7x13D;
#N canvas 294 295 573 314 init 0;
#X obj 101 15 table coorX;
#X obj 187 15 table coorY;
#X obj 274 16 table valD;
#X obj 35 11 loadbang;
#X obj 6 11 s B;
#X msg 12 44 \; connON-r 1 \; qual 0 \; showDmouse-r 0 \; sz 15 \;
coorX resize 13 \; coorX 0 0.038 0.115 0.192 0.269 0.346 0.423 0.5
0.577 0.654 0.731 0.807 0.884 0.961 \; coorX bounds 0 0 12 1 \; coorY
resize 7 \; coorY 0 0.071 0.214 0.357 0.5 0.642 0.786 0.928 \; coorY
bounds 0 0 6 1 \; valD resize 91 \; valD xticks 0 5 1 \; valD xlabel
-0.1 0 5 10 15 20 25 30 35 40 45 50 55 60 65 70 75 80 85 90 \; valD
ylabel -1 0.5 1 1.5 2 3 4 5 \; valD bounds 0 9 91 0 \; bdata bang \;
MaxThr-r 10 \;, f 86;
#X connect 3 0 4 0;
#X connect 3 0 5 0;
#X restore 33 91 pd init;
#N canvas 143 260 454 361 D2sound 0;
#X obj 63 263 tgl 15 0 empty empty empty 17 7 0 10 -262144 -1 -1 1
1;
#X msg 84 125 disconnect;
#X obj 62 219 netsend;
#X msg 32 97 connect localhost 2000;
#X msg 141 161 send /pixN_Dval \$1 \$2;
#X obj 182 133 r OutList;
#X obj 51 15 inlet;
#X obj 63 293 outlet;
#X obj 55 52 sel 1 0;
#X msg 187 321 send /test \$1 \$2;
#X floatatom 194 253 5 0 0 0 - - -, f 5;
#X floatatom 245 239 5 0 0 0 - - -, f 5;
#X obj 211 295 pack f f;
#X obj 247 270 t b f;
#X obj 175 224 hsl 128 15 0 127 0 0 empty empty empty -2 -8 0 10 -262144
-1 -1 0 1;
#X obj 262 85 r maxThr;
#X msg 253 122 send /maxThr \$1;
#X obj 334 146 r minThr;
#X msg 325 183 send /minThr \$1;
#X connect 0 0 7 0;
#X connect 1 0 2 0;
#X connect 2 0 0 0;
#X connect 3 0 2 0;
#X connect 4 0 2 0;
#X connect 5 0 4 0;
#X connect 6 0 8 0;
#X connect 8 0 3 0;
#X connect 8 1 1 0;
#X connect 9 0 2 0;
#X connect 10 0 12 0;
#X connect 11 0 13 0;
#X connect 12 0 9 0;
#X connect 13 0 12 0;
#X connect 13 1 12 1;
#X connect 14 0 10 0;
#X connect 14 0 11 0;
#X connect 15 0 16 0;
#X connect 16 0 2 0;
#X connect 17 0 18 0;
#X connect 18 0 2 0;
#X restore 35 164 pd D2sound;
#X obj 103 262 r B;
#X msg 103 283 1;
#X obj 344 357 r B;
#X msg 314 357 0;
#X obj 35 146 tgl 15 0 empty connON-r empty 17 7 0 10 -262144 -1 -1
1 1;
#X obj 35 183 tgl 15 0 empty empty empty 17 7 0 10 -262144 -1 -1 1
1;
#X obj 120 155 s bdata;
#N canvas 1 260 449 436 Dimg4test 0;
#X obj 62 320 s Dimg;
#X obj 315 31 gemhead 51;
#X obj 318 121 colorRGB;
#X obj 318 193 translateXYZ;
#X floatatom 367 88 5 0 0 0 - - -, f 5;
#X obj 88 158 spigot;
#X obj 90 112 tgl 15 0 empty empty empty 0 -6 0 8 -262144 -1 -1 0 1
;
#X obj 57 138 t a b;
#X obj 88 178 t b b;
#X msg 124 178 0;
#X floatatom 340 153 5 0 0 0 - - -, f 5;
#X obj 318 225 rectangle 0.3 0.45;
#X obj 56 74 gemhead 52;
#X obj 127 119 metro 300;
#X obj 128 97 tgl 15 0 empty empty empty 17 7 0 10 -262144 -1 -1 0
1;
#X obj 59 38 tgl 15 0 empty empty empty 17 7 0 10 -262144 -1 -1 0 1
;
#X floatatom 378 153 5 0 0 0 - - -, f 5;
#X msg 236 361 \$1 \$1;
#X floatatom 259 259 5 0 0 0 - - -, f 5;
#X obj 239 329 pack f f;
#X obj 265 307 t b f;
#X obj 267 283 expr 3*$f1/4;
#X obj 57 284 pix_snap;
#X obj 316 61 alpha;
#X floatatom 318 347 5 0 0 0 - - -, f 5;
#X msg 201 222 640 480;
#X text 18 386 qual é o tamanho do snap? para a imagem snappada ficar
igual a imagem criada (com rectangulo do tamanho de X/13 e Y/7)?;
#X obj 281 30 tgl 15 0 empty empty empty 17 7 0 10 -262144 -1 -1 0
1;
#X obj 198 33 loadbang;
#X msg 209 58 0;
#X connect 1 0 23 0;
#X connect 2 0 3 0;
#X connect 3 0 11 0;
#X connect 4 0 2 4;
#X connect 5 0 8 0;
#X connect 6 0 5 1;
#X connect 7 0 22 0;
#X connect 7 1 5 0;
#X connect 8 0 22 0;
#X connect 8 1 9 0;
#X connect 9 0 6 0;
#X connect 10 0 3 1;
#X connect 12 0 7 0;
#X connect 13 0 6 0;
#X connect 14 0 13 0;
#X connect 15 0 12 0;
#X connect 16 0 3 2;
#X connect 17 0 22 2;
#X connect 18 0 21 0;
#X connect 18 0 19 0;
#X connect 19 0 17 0;
#X connect 20 0 19 0;
#X connect 20 1 19 1;
#X connect 20 1 24 0;
#X connect 21 0 20 0;
#X connect 22 0 0 0;
#X connect 23 0 2 0;
#X connect 25 0 22 2;
#X connect 27 0 1 0;
#X connect 28 0 29 0;
#X connect 29 0 27 0;
#X connect 29 0 15 0;
#X restore 113 180 pd Dimg4test;
#X obj 67 502 pix_flip;
#X msg 95 466 horizontal;
#X obj 101 440 r B;
#X obj 382 522 pix_crop 32 0 580 440;
#X floatatom 394 486 5 0 0 1 dimX - -, f 5;
#X floatatom 407 503 5 0 0 1 dimY - -, f 5;
#X floatatom 474 486 5 0 0 1 offX - -, f 5;
#X floatatom 487 503 5 0 0 1 offY - -, f 5;
#X obj 382 552 s Dimg;
#X obj 67 529 s img;
#X obj 282 99 s maxThr;
#X floatatom 282 80 5 0 0 0 - - -, f 5;
#X obj 285 60 hsl 128 15 0 10 0 0 empty empty empty -2 -8 0 10 -262144
-1 -1 3810 1;
#X obj 282 35 nbx 5 20 -1e+37 1e+37 0 0 empty MaxThr-r Max_Threshold
0 -10 0 15 -262144 -1 -1 3 256;
#X obj 120 134 bng 15 250 50 0 empty empty empty 17 7 0 10 -262144
-1 -1;
#N canvas 363 126 450 300 TODO 0;
#X text 35 51 eventually implement option of setting the minimum;
#X obj 39 99 maxlib/scale;
#X restore 143 130 pd TODO;
#X floatatom 282 188 5 0 0 0 - - -, f 5;
#X obj 285 168 hsl 128 15 0 10 0 0 empty empty empty -2 -8 0 10 -262144
-1 -1 2301 1;
#X obj 282 143 nbx 5 20 -1e+37 1e+37 0 0 empty MinThr-r Min_Threshold
0 -10 0 15 -262144 -1 -1 0.001 256;
#X obj 282 207 s minThr;
#X obj 260 277 s mouse-mode;
#X text 288 240 mode 0 - real distance (meters) mode 1 - ranges 0-1
;
#X obj 260 240 vradio 15 1 0 2 empty empty empty 0 -8 0 10 -262144
-1 -1 0;
#N canvas 1 192 302 444 preview 0;
#X obj 93 313 pix_texture;
#X msg 107 284 quality \$1;
#X obj 107 265 tgl 15 0 empty qual empty 17 7 0 10 -262144 -1 -1 0
1;
#X obj 93 358 rectangle 5.33 4;
#X obj 93 57 gemhead;
#X msg 104 168 GREY;
#X obj 93 230 pix_set 13 7;
#X obj 93 81 t a b;
#X obj 104 144 r B;
#X obj 169 136 tabdump valD, f 14;
#X obj 177 102 bng 15 250 50 0 empty empty empty 17 7 0 10 -262144
-1 -1;
#X obj 192 242 r B;
#X msg 193 269 0;
#X connect 0 0 3 0;
#X connect 1 0 0 0;
#X connect 2 0 1 0;
#X connect 4 0 7 0;
#X connect 5 0 6 0;
#X connect 6 0 0 0;
#X connect 7 0 6 0;
#X connect 7 1 9 0;
#X connect 8 0 5 0;
#X connect 9 0 6 1;
#X connect 10 0 9 0;
#X connect 11 0 12 0;
#X connect 12 0 2 0;
#X restore 141 210 pd preview;
#X connect 0 0 8 0;
#X connect 2 0 8 1;
#X connect 6 0 8 0;
#X connect 7 0 8 0;
#X connect 8 0 12 0;
#X connect 8 1 37 0;
#X connect 9 0 0 0;
#X connect 10 0 2 0;
#X connect 13 0 16 0;
#X connect 14 0 34 0;
#X connect 15 0 16 1;
#X connect 16 0 34 0;
#X connect 16 1 14 0;
#X connect 20 0 19 0;
#X connect 21 0 19 0;
#X connect 25 0 31 0;
#X connect 26 0 27 0;
#X connect 27 0 15 0;
#X connect 28 0 29 0;
#X connect 29 0 9 0;
#X connect 30 0 25 0;
#X connect 34 0 43 0;
#X connect 35 0 34 0;
#X connect 36 0 35 0;
#X connect 37 0 42 0;
#X connect 38 0 37 1;
#X connect 39 0 37 2;
#X connect 40 0 37 3;
#X connect 41 0 37 4;
#X connect 45 0 44 0;
#X connect 46 0 45 0;
#X connect 47 0 46 0;
#X connect 48 0 32 0;
#X connect 50 0 53 0;
#X connect 51 0 50 0;
#X connect 52 0 51 0;
#X connect 56 0 54 0;
