#N canvas 675 375 507 309 10;
#X obj 143 32 tgl 15 0 empty dspON-r empty 17 7 0 10 -262144 -1 -1
1 1;
#X msg 143 52 \; pd dsp \$1;
#N canvas 159 131 327 333 rec7x13D 0;
#X obj 61 33 netreceive 2000;
#X obj 41 104 unpack f f;
#X obj 108 281 s;
#X obj 122 101 s go-r;
#X obj 219 100 unpack f f;
#X floatatom 218 133 5 0 0 0 - - -, f 5;
#X floatatom 261 131 5 0 0 0 - - -, f 5;
#X obj 158 252 makefilename D-%d;
#X obj 123 216 f;
#X obj 136 172 t b f;
#X obj 237 199 s maxThr;
#X obj 62 62 route /pixN_Dval /go /test /maxThr /minThr;
#X obj 267 236 s minThr;
#X connect 0 0 11 0;
#X connect 1 0 9 0;
#X connect 1 1 8 1;
#X connect 4 0 5 0;
#X connect 4 1 6 0;
#X connect 7 0 2 1;
#X connect 8 0 2 0;
#X connect 9 0 8 0;
#X connect 9 1 7 0;
#X connect 11 0 1 0;
#X connect 11 1 3 0;
#X connect 11 2 4 0;
#X connect 11 3 10 0;
#X connect 11 4 12 0;
#X restore 29 43 pd rec7x13D;
#N canvas 262 341 807 236 play_samples 0;
#X obj 142 17 playD 2;
#X obj 26 17 playD 0;
#X obj 375 17 playD 6;
#X obj 719 105 playD 51;
#X obj 259 17 playD 4;
#X obj 200 17 playD 3;
#X obj 84 17 playD 1;
#X obj 317 17 playD 5;
#X obj 433 17 playD 7;
#X obj 489 17 playD 8;
#X obj 547 17 playD 9;
#X obj 605 17 playD 10;
#X obj 663 17 playD 11;
#X obj 719 17 playD 12;
#X obj 26 46 playD 13;
#X obj 84 46 playD 14;
#X obj 142 46 playD 15;
#X obj 200 46 playD 16;
#X obj 259 46 playD 17;
#X obj 317 46 playD 18;
#X obj 375 46 playD 19;
#X obj 433 46 playD 20;
#X obj 489 46 playD 21;
#X obj 547 46 playD 22;
#X obj 605 46 playD 23;
#X obj 663 46 playD 24;
#X obj 719 46 playD 25;
#X obj 26 75 playD 26;
#X obj 84 75 playD 27;
#X obj 142 75 playD 28;
#X obj 200 75 playD 29;
#X obj 259 75 playD 30;
#X obj 317 75 playD 31;
#X obj 375 75 playD 32;
#X obj 433 75 playD 33;
#X obj 489 75 playD 34;
#X obj 547 75 playD 35;
#X obj 605 75 playD 36;
#X obj 663 75 playD 37;
#X obj 719 75 playD 38;
#X obj 26 105 playD 39;
#X obj 84 105 playD 40;
#X obj 142 105 playD 41;
#X obj 200 105 playD 42;
#X obj 259 105 playD 43;
#X obj 317 105 playD 44;
#X obj 375 105 playD 45;
#X obj 433 105 playD 46;
#X obj 489 105 playD 47;
#X obj 547 105 playD 48;
#X obj 605 105 playD 49;
#X obj 663 105 playD 50;
#X obj 26 134 playD 52;
#X obj 84 134 playD 53;
#X obj 142 134 playD 54;
#X obj 200 134 playD 55;
#X obj 259 134 playD 56;
#X obj 317 134 playD 57;
#X obj 375 134 playD 58;
#X obj 433 134 playD 59;
#X obj 489 134 playD 60;
#X obj 547 134 playD 61;
#X obj 605 134 playD 62;
#X obj 663 134 playD 63;
#X obj 719 134 playD 64;
#X obj 26 163 playD 65;
#X obj 84 163 playD 66;
#X obj 142 163 playD 67;
#X obj 200 163 playD 68;
#X obj 259 163 playD 69;
#X obj 317 163 playD 70;
#X obj 375 163 playD 71;
#X obj 433 163 playD 72;
#X obj 489 163 playD 73;
#X obj 547 163 playD 74;
#X obj 605 163 playD 75;
#X obj 663 163 playD 76;
#X obj 719 163 playD 77;
#X obj 26 191 playD 78;
#X obj 84 191 playD 79;
#X obj 142 191 playD 80;
#X obj 200 191 playD 81;
#X obj 259 191 playD 82;
#X obj 317 191 playD 83;
#X obj 376 191 playD 84;
#X obj 434 191 playD 85;
#X obj 490 191 playD 86;
#X obj 548 191 playD 87;
#X obj 606 191 playD 88;
#X obj 664 191 playD 89;
#X obj 720 191 playD 90;
#X restore 29 65 pd play_samples;
#X obj 301 267 dac~;
#X floatatom 428 177 5 0 0 0 - - -, f 5;
#X floatatom 28 150 5 0 0 0 - - -, f 5;
#X floatatom 151 150 5 0 0 0 - - -, f 5;
#X obj 151 169 s Tempomin;
#X obj 28 169 s TempoRange;
#X obj 232 189 catch~ som-l;
#X obj 319 189 catch~ som-r;
#X msg 28 122 3000;
#X obj 428 89 vsl 15 78 0 5 0 0 empty Vol-r Volume 0 -9 0 10 -262144
-1 -1 1540 1;
#X obj 428 200 lop~ 0.5;
#X obj 234 231 *~;
#X obj 321 231 *~;
#X obj 241 52 s sample_bank-r;
#X obj 241 27 hradio 15 1 0 3 empty empty empty 0 -8 0 10 -262144 -1
-1 0;
#X text 239 9 0 samples 1 test samples;
#N canvas 1 331 589 405 play_mode 0;
#X obj 73 300 s Go;
#X obj 73 266 tgl 15 0 empty empty empty 17 7 0 10 -262144 -1 -1 1
1;
#X obj 130 299 s GoOnce;
#X obj 130 280 bng 15 250 50 0 empty empty empty 17 7 0 10 -262144
-1 -1;
#X obj 130 258 metro 500;
#X obj 130 218 tgl 15 0 empty empty empty 17 7 0 10 -262144 -1 -1 0
1;
#X floatatom 181 235 5 0 0 0 - - -, f 5;
#X obj 88 44 inlet;
#X obj 90 85 hradio 15 1 0 4 empty empty empty 0 -8 0 10 -262144 -1
-1 0;
#X obj 92 161 sel 0 1 2 3;
#X obj 91 117 t f b;
#X msg 211 168 0;
#X obj 293 326 s GoOnce;
#X obj 293 298 metro 500;
#X obj 293 258 tgl 15 0 empty empty empty 17 7 0 10 -262144 -1 -1 0
1;
#X obj 340 13 r D-45;
#X floatatom 421 221 5 0 0 0 - - -, f 5;
#X obj 371 300 + 100;
#X obj 383 212 *;
#X obj 389 171 t f b;
#X obj 344 111 line 0 1;
#X msg 344 89 \$1 100;
#X text 459 221 set maximum depth tempo;
#X floatatom 416 318 5 0 0 0 - - -, f 5;
#X text 369 334 set mininum depth tempo \; (= sample length?);
#X floatatom 469 103 5 0 0 0 - - -, f 5;
#X obj 342 39 expr 1 - $f1;
#X obj 393 260 * 2000;
#X floatatom 467 38 5 0 0 0 - - -, f 5;
#X connect 1 0 0 0;
#X connect 3 0 2 0;
#X connect 4 0 3 0;
#X connect 5 0 4 0;
#X connect 6 0 4 1;
#X connect 7 0 8 0;
#X connect 8 0 10 0;
#X connect 9 0 1 0;
#X connect 9 1 5 0;
#X connect 9 2 14 0;
#X connect 10 0 9 0;
#X connect 10 1 11 0;
#X connect 11 0 5 0;
#X connect 11 0 1 0;
#X connect 11 0 14 0;
#X connect 13 0 12 0;
#X connect 14 0 13 0;
#X connect 15 0 26 0;
#X connect 15 0 28 0;
#X connect 16 0 27 1;
#X connect 17 0 13 1;
#X connect 18 0 27 0;
#X connect 19 0 18 1;
#X connect 19 0 18 0;
#X connect 20 0 19 0;
#X connect 21 0 20 0;
#X connect 23 0 17 1;
#X connect 26 0 21 0;
#X connect 27 0 17 0;
#X restore 238 146 pd play_mode;
#X obj 238 120 hradio 15 1 0 4 empty playmode-r empty 0 -8 0 10 -262144
-1 -1 0;
#X msg 151 128 50;
#N canvas 689 324 287 174 init 0;
#X obj 71 32 loadbang;
#X msg 70 79 \; dspON-r 1 \; Vol-r 1 \; playmode-r 0 \;;
#X connect 0 0 1 0;
#X restore 29 21 pd init;
#X text 237 74 choose playmode 0 default 2 central pixel rules;
#X connect 0 0 1 0;
#X connect 5 0 14 0;
#X connect 6 0 9 0;
#X connect 7 0 8 0;
#X connect 10 0 15 0;
#X connect 11 0 16 0;
#X connect 12 0 6 0;
#X connect 13 0 5 0;
#X connect 14 0 15 1;
#X connect 14 0 16 1;
#X connect 15 0 4 0;
#X connect 16 0 4 1;
#X connect 18 0 17 0;
#X connect 21 0 20 0;
#X connect 22 0 7 0;
