#N canvas 596 221 485 435 10;
#X obj 146 175 pix_data;
#X obj 168 206 unpack f f f;
#X obj 202 243 * 256;
#X obj 132 243 * 65536;
#X obj 132 273 +;
#X text 241 242 second and first 8 bits;
#X obj 135 298 / 1000;
#X text 159 270 depthmode 1;
#X obj 119 -1 r img;
#X obj 165 110 tabread coorX;
#X obj 253 111 tabread coorY;
#X obj 293 355 tabwrite valD;
#X obj 369 303 r bdata;
#X obj 368 328 \$1;
#X obj 165 88 \$2;
#X obj 253 87 \$3;
#X obj 99 394 pack f f;
#X obj 117 362 \$1;
#X obj 117 336 t b f;
#X text 165 386 sends out a pack \; with pixN and Dval;
#X obj 101 425 s OutList;
#X obj 119 24 t a b;
#X obj 253 145 expr 1 - $f1;
#X obj 146 53 t b b b;
#X connect 0 1 1 0;
#X connect 1 0 3 0;
#X connect 1 1 2 0;
#X connect 2 0 4 1;
#X connect 3 0 4 0;
#X connect 4 0 6 0;
#X connect 6 0 11 0;
#X connect 6 0 18 0;
#X connect 8 0 21 0;
#X connect 9 0 0 2;
#X connect 10 0 22 0;
#X connect 12 0 13 0;
#X connect 13 0 11 1;
#X connect 14 0 9 0;
#X connect 15 0 10 0;
#X connect 16 0 20 0;
#X connect 17 0 16 0;
#X connect 18 0 17 0;
#X connect 18 1 16 1;
#X connect 21 0 0 1;
#X connect 21 1 23 0;
#X connect 22 0 0 3;
#X connect 23 0 0 0;
#X connect 23 1 14 0;
#X connect 23 2 15 0;
