#N canvas 354 59 669 708 10;
#X obj 27 335 soundfiler;
#X floatatom 33 71 5 0 0 0 - - -, f 5;
#X obj 352 384 bng 15 250 50 0 empty empty empty 17 7 0 10 -262144
-1 -1;
#X obj 33 41 \$1;
#X obj 35 15 loadbang;
#X obj 348 335 metro 500;
#X obj 338 298 tgl 15 0 empty empty empty 17 7 0 10 -262144 -1 -1 1
1;
#X obj 330 270 r Go;
#X obj 468 621 *~ 0.1;
#X floatatom 409 274 5 0 0 0 - - -, f 5;
#X obj 443 410 + 100;
#X obj 443 370 * 100;
#X obj 501 526 expr (10-$f1)/10;
#X obj 499 550 lop~ 3;
#X obj 475 592 *~;
#X obj 509 457 sel 0;
#X msg 460 511 0;
#X obj 517 372 r TempoRange;
#X obj 517 408 r Tempomin;
#X obj 269 359 r GoOnce;
#X obj 25 381 table s\$1-r;
#X obj 26 417 table s\$1-l;
#X obj 72 245 makefilename s%d-l;
#X obj 195 248 makefilename s%d-r;
#X obj 28 95 t f f f;
#X obj 27 278 pack s s s;
#X msg 28 306 read -resize \$1 \$2 \$3;
#X obj 314 475 tabplay~ bogus;
#X msg 285 428 set \$1;
#X obj 204 480 tabplay~ bogus;
#X msg 200 445 set \$1;
#X obj 369 619 *~ 0.1;
#X obj 376 590 *~;
#X obj 470 657 throw~ som-r;
#X obj 371 655 throw~ som-l;
#X obj 91 15 r reset;
#X obj 353 535 delay~;
#X obj 239 544 delay~;
#X obj 466 343 t f f f;
#X text 153 28 set the name of the array with the \$1 variable of the
abstraction;
#X obj 21 191 makefilename ./Numbered_sound_files/%d.wav;
#X obj 21 147 demux . . .;
#X obj 20 216 makefilename ./Numbered_sound_files_test/%d.wav;
#X obj 148 93 hradio 15 1 0 3 empty sample_bank-r samples_bank 0 -8
0 10 -262144 -1 -1 1;
#X obj 144 122 t b f;
#X floatatom 524 307 5 0 0 0 - - -, f 5;
#X obj 443 315 r D-\$1;
#X connect 1 0 24 0;
#X connect 2 0 27 0;
#X connect 2 0 29 0;
#X connect 3 0 1 0;
#X connect 4 0 3 0;
#X connect 5 0 2 0;
#X connect 6 0 5 0;
#X connect 7 0 6 0;
#X connect 8 0 33 0;
#X connect 9 0 5 1;
#X connect 10 0 5 1;
#X connect 11 0 10 0;
#X connect 12 0 13 0;
#X connect 13 0 14 1;
#X connect 13 0 32 1;
#X connect 14 0 8 0;
#X connect 15 0 16 0;
#X connect 15 1 12 0;
#X connect 16 0 13 0;
#X connect 17 0 11 1;
#X connect 18 0 10 1;
#X connect 19 0 2 0;
#X connect 22 0 25 1;
#X connect 22 0 28 0;
#X connect 23 0 25 2;
#X connect 23 0 30 0;
#X connect 24 0 41 0;
#X connect 24 1 22 0;
#X connect 24 2 23 0;
#X connect 25 0 26 0;
#X connect 26 0 0 0;
#X connect 27 0 36 0;
#X connect 28 0 27 0;
#X connect 29 0 37 0;
#X connect 30 0 29 0;
#X connect 31 0 34 0;
#X connect 32 0 31 0;
#X connect 35 0 3 0;
#X connect 36 0 14 0;
#X connect 37 0 32 0;
#X connect 38 0 11 0;
#X connect 38 1 15 0;
#X connect 38 2 36 1;
#X connect 38 2 37 1;
#X connect 40 0 25 0;
#X connect 41 0 40 0;
#X connect 41 1 42 0;
#X connect 42 0 25 0;
#X connect 43 0 44 0;
#X connect 44 0 3 0;
#X connect 44 1 41 1;
#X connect 46 0 38 0;
#X connect 46 0 45 0;
